name analog
datacolumns 19
datarows 28
range 0.0 0.0135
endheader
time	ground_force_vx	ground_force_vy	ground_force_vz	ground_force_px	ground_force_py	ground_force_pz	l_ground_force_vx	l_ground_force_vy	l_ground_force_vz	l_ground_force_px	l_ground_force_py	l_ground_force_pz	ground_torque_x	ground_torque_y	ground_torque_z	l_ground_torque_x	l_ground_torque_y	l_ground_torque_z
0.0	-0.0	-0.0	-0.0	1.231850504875183	47.76795196533203	-391.2439270019531	-4.349934577941895	-45.60302734375	-393.4816284179688	-0.0	-0.0	-0.0	-0.0	-0.0	-0.0	103712.1875	5103.853515625	-7660.32373046875
0.0005	-0.0	-0.0	-0.0	0.8690964579582214	47.949337005615234	-393.4313049316406	-4.54716682434082	-45.66231536865234	-392.7053833007813	-0.0	-0.0	-0.0	-0.0	-0.0	-0.0	103663.578125	5185.125	-7668.154296875
0.001	-0.0	-0.0	-0.0	1.1314191818237305	47.7712287902832	-392.48443603515625	-4.767503261566162	-45.42571258544922	-392.8066101074219	-0.0	-0.0	-0.0	-0.0	-0.0	-0.0	103501.4375	5392.517578125	-7713.21630859375
0.0015	-0.0	-0.0	-0.0	0.6041016578674316	47.88595581054688	-390.7986755371094	-4.987950801849365	-45.57398986816406	-392.00732421875	-0.0	-0.0	-0.0	-0.0	-0.0	-0.0	103460.015625	5250.537109375	-7742.15283203125
0.002	-0.0	-0.0	-0.0	0.7799860835075378	47.68718719482422	-389.2042846679688	-4.749863624572754	-45.5992546081543	-393.7431640625	-0.0	-0.0	-0.0	-0.0	-0.0	-0.0	103660.6171875	5611.37646484375	-7638.61865234375
0.0025	-0.0	-0.0	-0.0	0.4917941689491272	48.1510009765625	-390.8796691894531	-4.879093170166016	-45.39495468139648	-391.91796875	-0.0	-0.0	-0.0	-0.0	-0.0	-0.0	103646.140625	5575.4453125	-7742.07958984375
0.003	-0.0	-0.0	-0.0	0.4232169687747955	48.03915786743164	-389.1138916015625	-5.145225524902344	-45.39734649658203	-391.6764526367188	-0.0	-0.0	-0.0	-0.0	-0.0	-0.0	103529.3359375	5690.37158203125	-7749.89892578125
0.0035	-0.0	-0.0	-0.0	0.4460525512695312	47.55006408691406	-390.0089111328125	-4.701671600341797	-45.17333984375	-392.5273742675781	-0.0	-0.0	-0.0	-0.0	-0.0	-0.0	103551.453125	5773.2861328125	-7645.35400390625
0.004	-0.0	-0.0	-0.0	0.4214264154434204	47.77204132080078	-389.7303771972656	-5.165905952453613	-45.50625991821289	-392.5356750488281	-0.0	-0.0	-0.0	-0.0	-0.0	-0.0	103357.953125	5646.14404296875	-7705.8017578125
0.0045000000000000005	-0.0	-0.0	-0.0	0.57730633020401	47.995872497558594	-389.7239379882813	-5.081000328063965	-45.44059371948242	-392.4537048339844	-0.0	-0.0	-0.0	-0.0	-0.0	-0.0	103154.7109375	5765.92724609375	-7682.3837890625
0.005	-0.0	-0.0	-0.0	0.7347894906997681	48.01860809326172	-388.5042724609375	-5.056514739990234	-45.59650421142578	-392.96673583984375	-0.0	-0.0	-0.0	-0.0	-0.0	-0.0	103394.078125	6058.3271484375	-7667.91943359375
0.0055	-0.0	-0.0	-0.0	0.8028945922851562	47.438575744628906	-387.8927307128906	-5.190373420715332	-45.33308029174805	-392.6178894042969	-0.0	-0.0	-0.0	-0.0	-0.0	-0.0	103312.1015625	5935.60595703125	-7742.953125
0.006	-0.0	-0.0	-0.0	0.8494418859481812	47.66216278076172	-390.3482971191406	-5.167762279510498	-45.552982330322266	-392.2690124511719	-0.0	-0.0	-0.0	-0.0	-0.0	-0.0	103440.4921875	6067.86572265625	-7742.96826171875
0.006500000000000001	-0.0	-0.0	-0.0	1.0931243896484375	47.63961410522461	-388.4084777832031	-5.169058322906494	-45.72822570800781	-392.10247802734375	-0.0	-0.0	-0.0	-0.0	-0.0	-0.0	103187.015625	6109.39111328125	-7705.361328125
0.007	-0.0	-0.0	-0.0	1.448896884918213	47.68476867675781	-389.6427001953125	-5.278878688812256	-45.90373611450195	-392.26953125	-0.0	-0.0	-0.0	-0.0	-0.0	-0.0	103230.2265625	6191.94580078125	-7690.49365234375
0.0075	-0.0	-0.0	-0.0	1.2498283386230469	47.26249694824219	-387.7059020996094	-5.232912063598633	-45.79428863525391	-392.6189880371094	-0.0	-0.0	-0.0	-0.0	-0.0	-0.0	103520.2421875	5975.95166015625	-7683.33642578125
0.008	-0.0	-0.0	-0.0	1.805935978889465	47.860721588134766	-388.676025390625	-5.122819423675537	-45.838958740234375	-391.1380004882813	-0.0	-0.0	-0.0	-0.0	-0.0	-0.0	103373.6796875	6113.3720703125	-7676.1005859375
0.0085	-0.0	-0.0	-0.0	1.2495654821395874	47.12754821777344	-388.67083740234375	-5.166831016540527	-45.92652130126953	-391.6600646972656	-0.0	-0.0	-0.0	-0.0	-0.0	-0.0	103460.390625	6052.87353515625	-7646.47802734375
0.009000000000000001	-0.0	-0.0	-0.0	1.7393711805343628	47.43930816650391	-387.1739807128906	-5.077620029449463	-45.705562591552734	-392.8858642578125	-0.0	-0.0	-0.0	-0.0	-0.0	-0.0	103333.796875	6159.392578125	-7750.06787109375
0.0095	-0.0	-0.0	-0.0	1.2941049337387085	47.37262344360352	-388.3206176757813	-4.701671600341797	-45.79505157470703	-392.7935485839844	-0.0	-0.0	-0.0	-0.0	-0.0	-0.0	103504.390625	6165.93212890625	-7579.1337890625
0.01	-0.0	-0.0	-0.0	1.873203158378601	46.94982147216797	-387.3490295410156	-4.790018081665039	-45.81678771972656	-393.40478515625	-0.0	-0.0	-0.0	-0.0	-0.0	-0.0	103472.8515625	5943.6181640625	-7601.71337890625
0.0105	-0.0	-0.0	-0.0	1.761824131011963	46.90496063232422	-387.9682922363281	-4.6572089195251465	-45.70636749267578	-392.4455871582031	-0.0	-0.0	-0.0	-0.0	-0.0	-0.0	103268.203125	5877.49072265625	-7705.19873046875
0.011	-0.0	-0.0	-0.0	1.784210205078125	46.86040496826172	-386.1139221191406	-4.790308475494385	-45.92735290527344	-393.5809326171875	-0.0	-0.0	-0.0	-0.0	-0.0	-0.0	103413.1875	5957.724609375	-7660.9970703125
0.0115	-0.0	-0.0	-0.0	1.672942280769348	46.99395751953125	-386.2907409667969	-4.723742961883545	-46.23638153076172	-393.3194274902344	-0.0	-0.0	-0.0	-0.0	-0.0	-0.0	103776.6640625	6077.6943359375	-7609.06591796875
0.012	-0.0	-0.0	-0.0	1.918546438217163	46.748722076416016	-388.1461181640625	-4.835033416748047	-45.90524673461914	-392.96978759765625	-0.0	-0.0	-0.0	-0.0	-0.0	-0.0	103592.9453125	6086.0361328125	-7720.34912109375
0.0125	-0.0	-0.0	-0.0	1.627967357635498	47.14998626708984	-387.5281677246094	-4.412754058837891	-46.19189453125	-393.7560729980469	-0.0	-0.0	-0.0	-0.0	-0.0	-0.0	103840.5	6094.92138671875	-7623.7548828125
0.013000000000000001	-0.0	-0.0	-0.0	1.6943902969360352	47.32885360717773	-387.0828247070313	-4.635024070739746	-46.19224548339844	-394.5377197265625	-0.0	-0.0	-0.0	-0.0	-0.0	-0.0	103840.734375	6082.8115234375	-7705.54638671875
0.0135	-0.0	-0.0	-0.0	1.2481868267059326	47.127891540527344	-387.6164855957031	-4.323586463928223	-46.45720672607422	-394.8905029296875	-0.0	-0.0	-0.0	-0.0	-0.0	-0.0	103690.2578125	5954.46728515625	-7660.83203125
